{
    "asset" : {
        "generator" : "Khronos glTF Blender I/O v1.8.19",
        "version" : "2.0"
    },
    "scene" : 0,
    "scenes" : [
        {
            "name" : "Scene",
            "nodes" : [
                5
            ]
        }
    ],
    "nodes" : [
        {
            "mesh" : 0,
            "name" : "Pen_Pencil_0",
            "rotation" : [
                0.696926474571228,
                -0.6368192434310913,
                -0.22116924822330475,
                -0.2446201890707016
            ],
            "translation" : [
                -0.011435814201831818,
                2.5426650047302246,
                2.016225576400757
            ]
        },
        {
            "children" : [
                0
            ],
            "name" : "Pen",
            "rotation" : [
                -0.7071068286895752,
                0,
                0,
                0.7071068286895752
            ]
        },
        {
            "children" : [
                1
            ],
            "name" : "RootNode"
        },
        {
            "children" : [
                2
            ],
            "name" : "2e84430255284155aca76a63ada53576.fbx",
            "rotation" : [
                0.7071068286895752,
                0,
                0,
                0.7071068286895752
            ]
        },
        {
            "children" : [
                3
            ],
            "name" : "RootNode (model correction matrix)",
            "rotation" : [
                -0.3040221035480499,
                -0.12567377090454102,
                0.36075490713119507,
                0.8727156519889832
            ],
            "translation" : [
                2.2907052040100098,
                -2.297309160232544,
                1.1301676034927368
            ]
        },
        {
            "children" : [
                4
            ],
            "name" : "RootNode (gltf orientation matrix)",
            "rotation" : [
                -0.7071068286895752,
                0,
                0,
                0.7071068286895752
            ]
        }
    ],
    "materials" : [
        {
            "doubleSided" : true,
            "name" : "Pencil",
            "normalTexture" : {
                "index" : 0
            },
            "pbrMetallicRoughness" : {
                "baseColorTexture" : {
                    "index" : 1
                },
                "metallicRoughnessTexture" : {
                    "index" : 2
                },
                "roughnessFactor" : 0
            }
        }
    ],
    "meshes" : [
        {
            "name" : "Pen_Pencil_0",
            "primitives" : [
                {
                    "attributes" : {
                        "POSITION" : 0,
                        "NORMAL" : 1,
                        "TEXCOORD_0" : 2
                    },
                    "indices" : 3,
                    "material" : 0
                }
            ]
        }
    ],
    "textures" : [
        {
            "sampler" : 0,
            "source" : 0
        },
        {
            "sampler" : 0,
            "source" : 1
        },
        {
            "sampler" : 0,
            "source" : 2
        }
    ],
    "images" : [
        {
            "bufferView" : 4,
            "mimeType" : "image/png",
            "name" : "Pencil_normal"
        },
        {
            "bufferView" : 5,
            "mimeType" : "image/png",
            "name" : "Pencil_baseColor"
        },
        {
            "bufferView" : 6,
            "mimeType" : "image/png",
            "name" : "Pencil_metallicRoughness"
        }
    ],
    "accessors" : [
        {
            "bufferView" : 0,
            "componentType" : 5126,
            "count" : 631,
            "max" : [
                0.6758009195327759,
                0.665533185005188,
                7.942408084869385
            ],
            "min" : [
                -0.6757931709289551,
                -0.6655272841453552,
                -0.1204671859741211
            ],
            "type" : "VEC3"
        },
        {
            "bufferView" : 1,
            "componentType" : 5126,
            "count" : 631,
            "type" : "VEC3"
        },
        {
            "bufferView" : 2,
            "componentType" : 5126,
            "count" : 631,
            "type" : "VEC2"
        },
        {
            "bufferView" : 3,
            "componentType" : 5123,
            "count" : 1404,
            "type" : "SCALAR"
        }
    ],
    "bufferViews" : [
        {
            "buffer" : 0,
            "byteLength" : 7572,
            "byteOffset" : 0
        },
        {
            "buffer" : 0,
            "byteLength" : 7572,
            "byteOffset" : 7572
        },
        {
            "buffer" : 0,
            "byteLength" : 5048,
            "byteOffset" : 15144
        },
        {
            "buffer" : 0,
            "byteLength" : 2808,
            "byteOffset" : 20192
        },
        {
            "buffer" : 0,
            "byteLength" : 277580,
            "byteOffset" : 23000
        },
        {
            "buffer" : 0,
            "byteLength" : 609369,
            "byteOffset" : 300580
        },
        {
            "buffer" : 0,
            "byteLength" : 16901,
            "byteOffset" : 909952
        }
    ],
    "samplers" : [
        {
            "magFilter" : 9729,
            "minFilter" : 9987
        }
    ],
    "buffers" : [
        {
            "byteLength" : 926856,
            "uri" : "data:application/octet-stream;base64,"
        }
    ]
}
